<?xml version="1.0" encoding="UTF-8"?>
<!DOCTYPE score-partwise PUBLIC "-//Recordare//DTD MusicXML 4.0 Partwise//EN" "http://www.musicxml.org/dtds/partwise.dtd">
<score-partwise version="4.0">
  <work>
    <work-title>No Hay Quizas</work-title>
  </work>
  <identification>
    <creator type="composer">Clandestin Media</creator>
  </identification>
  <part-list>
    <score-part id="P1">
      <part-name>Guitar</part-name>
    </score-part>
  </part-list>
  <part id="P1">
    <!-- Measure 1: Am -->
    <measure number="1">
      <attributes>
        <divisions>1</divisions>
        <key>
          <fifths>0</fifths>
          <mode>minor</mode>
        </key>
        <time>
          <beats>4</beats>
          <beat-type>4</beat-type>
        </time>
        <clef>
          <sign>G</sign>
          <line>2</line>
        </clef>
      </attributes>
      <harmony>
        <root><root-step>A</root-step></root>
        <kind>minor</kind>
      </harmony>
      <note>
        <pitch><step>A</step><octave>3</octave></pitch>
        <duration>1</duration>
        <type>quarter</type>
      </note>
      <note>
        <pitch><step>C</step><octave>4</octave></pitch>
        <duration>1</duration>
        <type>quarter</type>
      </note>
      <note>
        <pitch><step>E</step><octave>4</octave></pitch>
        <duration>1</duration>
        <type>quarter</type>
      </note>
      <note>
        <pitch><step>A</step><octave>4</octave></pitch>
        <duration>1</duration>
        <type>quarter</type>
      </note>
    </measure>
    <!-- Measure 2: Am -->
    <measure number="2">
      <harmony>
        <root><root-step>A</root-step></root>
        <kind>minor</kind>
      </harmony>
      <note>
        <pitch><step>A</step><octave>3</octave></pitch>
        <duration>1</duration>
        <type>quarter</type>
      </note>
      <note>
        <pitch><step>E</step><octave>4</octave></pitch>
        <duration>1</duration>
        <type>quarter</type>
      </note>
      <note>
        <pitch><step>C</step><octave>4</octave></pitch>
        <duration>1</duration>
        <type>quarter</type>
      </note>
      <note>
        <pitch><step>A</step><octave>4</octave></pitch>
        <duration>1</duration>
        <type>quarter</type>
      </note>
    </measure>
    <!-- Measure 3: F -->
    <measure number="3">
      <harmony>
        <root><root-step>F</root-step></root>
        <kind>major</kind>
      </harmony>
      <note>
        <pitch><step>F</step><octave>3</octave></pitch>
        <duration>1</duration>
        <type>quarter</type>
      </note>
      <note>
        <pitch><step>A</step><octave>3</octave></pitch>
        <duration>1</duration>
        <type>quarter</type>
      </note>
      <note>
        <pitch><step>C</step><octave>4</octave></pitch>
        <duration>1</duration>
        <type>quarter</type>
      </note>
      <note>
        <pitch><step>F</step><octave>4</octave></pitch>
        <duration>1</duration>
        <type>quarter</type>
      </note>
    </measure>
    <!-- Measure 4: F -->
    <measure number="4">
      <harmony>
        <root><root-step>F</root-step></root>
        <kind>major</kind>
      </harmony>
      <note>
        <pitch><step>F</step><octave>3</octave></pitch>
        <duration>1</duration>
        <type>quarter</type>
      </note>
      <note>
        <pitch><step>C</step><octave>4</octave></pitch>
        <duration>1</duration>
        <type>quarter</type>
      </note>
      <note>
        <pitch><step>A</step><octave>3</octave></pitch>
        <duration>1</duration>
        <type>quarter</type>
      </note>
      <note>
        <pitch><step>F</step><octave>4</octave></pitch>
        <duration>1</duration>
        <type>quarter</type>
      </note>
    </measure>
    <!-- Measure 5: C -->
    <measure number="5">
      <harmony>
        <root><root-step>C</root-step></root>
        <kind>major</kind>
      </harmony>
      <note>
        <pitch><step>C</step><octave>4</octave></pitch>
        <duration>1</duration>
        <type>quarter</type>
      </note>
      <note>
        <pitch><step>E</step><octave>4</octave></pitch>
        <duration>1</duration>
        <type>quarter</type>
      </note>
      <note>
        <pitch><step>G</step><octave>4</octave></pitch>
        <duration>1</duration>
        <type>quarter</type>
      </note>
      <note>
        <pitch><step>C</step><octave>5</octave></pitch>
        <duration>1</duration>
        <type>quarter</type>
      </note>
    </measure>
    <!-- Measure 6: C -->
    <measure number="6">
      <harmony>
        <root><root-step>C</root-step></root>
        <kind>major</kind>
      </harmony>
      <note>
        <pitch><step>C</step><octave>4</octave></pitch>
        <duration>1</duration>
        <type>quarter</type>
      </note>
      <note>
        <pitch><step>G</step><octave>4</octave></pitch>
        <duration>1</duration>
        <type>quarter</type>
      </note>
      <note>
        <pitch><step>E</step><octave>4</octave></pitch>
        <duration>1</duration>
        <type>quarter</type>
      </note>
      <note>
        <pitch><step>C</step><octave>5</octave></pitch>
        <duration>1</duration>
        <type>quarter</type>
      </note>
    </measure>
    <!-- Measure 7: G -->
    <measure number="7">
      <harmony>
        <root><root-step>G</root-step></root>
        <kind>major</kind>
      </harmony>
      <note>
        <pitch><step>G</step><octave>3</octave></pitch>
        <duration>1</duration>
        <type>quarter</type>
      </note>
      <note>
        <pitch><step>B</step><octave>3</octave></pitch>
        <duration>1</duration>
        <type>quarter</type>
      </note>
      <note>
        <pitch><step>D</step><octave>4</octave></pitch>
        <duration>1</duration>
        <type>quarter</type>
      </note>
      <note>
        <pitch><step>G</step><octave>4</octave></pitch>
        <duration>1</duration>
        <type>quarter</type>
      </note>
    </measure>
    <!-- Measure 8: G -->
    <measure number="8">
      <harmony>
        <root><root-step>G</root-step></root>
        <kind>major</kind>
      </harmony>
      <note>
        <pitch><step>G</step><octave>3</octave></pitch>
        <duration>1</duration>
        <type>quarter</type>
      </note>
      <note>
        <pitch><step>D</step><octave>4</octave></pitch>
        <duration>1</duration>
        <type>quarter</type>
      </note>
      <note>
        <pitch><step>B</step><octave>3</octave></pitch>
        <duration>1</duration>
        <type>quarter</type>
      </note>
      <note>
        <pitch><step>G</step><octave>4</octave></pitch>
        <duration>1</duration>
        <type>quarter</type>
      </note>
    </measure>
  </part>
</score-partwise>
